# xmcd
#
# Track frame offsets:
#	150
#	14081
#	32374
#	47926
#	65296
#	79079
#	107397
#	122970
#	138098
#	160367
#	173402
#	193737
#	215705
#	235970
#	253977
#	274320
#	311759
#	329431
#
# Disc length: 4635 seconds
#
# Revision: 1
# Processed by: cddbd v1.5.2PL0 Copyright (c) Steve Scherf et al.
# Submitted via: audiograbber 1.83.01
#
DISCID=08121912
DTITLE=Various Artist - FTG Presents The Vaults Volume 5 [CD1]
DYEAR=2017
DGENRE=Dance
TTITLE0=The Delfonics - Break Your Promise (Remastered)
TTITLE1=Shuggie Otis - Strawberry Letter 23 (Remastered)
TTITLE2=The Delfonics - Hey! Love (Remastered)
TTITLE3=Billy Paul - Magic Carpet Ride (single Version)
TTITLE4=Johnny Nash - Stir It Up (Single Mix)
TTITLE5=The O'Jays - Love Train (Extended Version)
TTITLE6=Johnny Mathis - I'm Coming Home (single version)
TTITLE7=Gladys Knight and The Pips - I Feel A Song In My Heart (Single Version)
TTITLE8=Earth, Winf and Fire - Saturday Nite (Alternate Mix)
TTITLE9=Deniece Williams - Free (Single Mix)
TTITLE10=The Manhattans - Kiss And Say Goodbye
TTITLE11=Heatwave - Turnout The Lamplight (Remastered)
TTITLE12=Lou Rawls - You'll Never Find  Another Love Like Mine (Remastered)
TTITLE13=KJohnny Taylor - Disco Lady (Single Version)
TTITLE14=The Emotions - Flowers (Single Version)
TTITLE15=Earth, Wind and Fire - Boogie Wonderland (12" Version)
TTITLE16=The Isley Brothers - Voyage To Atlantis (Single Version)
TTITLE17=Heatwave - Happiness Together (Remastered)
EXTD=
EXTT0=
EXTT1=
EXTT2=
EXTT3=
EXTT4=
EXTT5=
EXTT6=
EXTT7=
EXTT8=
EXTT9=
EXTT10=
EXTT11=
EXTT12=
EXTT13=
EXTT14=
EXTT15=
EXTT16=
EXTT17=
PLAYORDER=
